<svg width="1920" height="356" viewBox="0 0 1920 356" fill="none" xmlns="http://www.w3.org/2000/svg">
<g clip-path="url(#clip0)">
<rect width="1920" height="356" fill="white"/>
<rect width="1920" height="356" fill="#222222"/>
<rect x="278" y="-403" width="263.855" height="875.398" transform="rotate(45 278 -403)" fill="#2A2A2A"/>
<rect x="470.5" y="-273.5" width="278.6" height="875.398" transform="rotate(45 470.5 -273.5)" fill="#272727"/>
<rect x="788" y="-217" width="237.786" height="875.398" transform="rotate(45 788 -217)" fill="#242424"/>
<g opacity="0.05">
<mask id="mask0" mask-type="alpha" maskUnits="userSpaceOnUse" x="667" y="83" width="586" height="190">
<path d="M1009.26 100.286H1041.2V106.387H1035.34C1035.1 106.946 1034.7 107.584 1034.14 108.301C1033.58 109.019 1032.98 109.737 1032.34 110.455C1031.71 111.093 1031.07 111.691 1030.43 112.249C1029.79 112.728 1029.27 113.086 1028.88 113.326C1027.12 114.681 1025.25 116.396 1023.25 118.47C1021.26 120.543 1019.38 123.095 1017.63 126.126C1015.96 129.077 1014.56 132.586 1013.44 136.653C1012.33 140.641 1011.77 145.226 1011.77 150.41C1011.77 154.637 1012.17 158.027 1012.96 160.579C1013.84 163.051 1014.8 164.965 1015.84 166.321C1016.95 167.597 1018.07 168.474 1019.19 168.953C1020.3 169.351 1021.1 169.551 1021.58 169.551H1021.94L1022.06 169.431C1021.02 167.916 1020.5 166.401 1020.5 164.885C1020.5 163.051 1021.3 161.376 1022.89 159.861C1024.57 158.266 1026.92 157.468 1029.95 157.468C1030.67 157.468 1031.55 157.668 1032.58 158.067C1033.7 158.386 1034.78 158.944 1035.81 159.741C1036.85 160.459 1037.73 161.456 1038.45 162.732C1039.16 164.008 1039.52 165.563 1039.52 167.398C1039.52 168.195 1039.32 169.272 1038.92 170.628C1038.53 171.983 1038.33 173.538 1038.33 175.293C1038.33 175.612 1038.33 175.931 1038.33 176.25C1038.33 176.649 1038.37 177.048 1038.45 177.446L1019.9 181.394C1015.76 180.118 1011.97 177.965 1008.54 174.934C1005.11 171.904 1002.32 168.713 1000.16 165.364C999.527 164.407 998.849 163.091 998.131 161.416C997.413 159.741 996.735 157.827 996.097 155.674C995.539 153.521 995.061 151.208 994.662 148.736C994.343 146.184 994.183 143.592 994.183 140.96C994.183 135.457 994.981 130.233 996.576 125.288C998.251 120.344 1001.24 115.439 1005.55 110.574C1007.78 107.942 1008.9 106.308 1008.9 105.669L1009.26 100.286Z" fill="black"/>
<path d="M1034.51 106.387V100.286H1135.23V106.387H1126.02V177.207L1106.64 164.885V145.865C1105.61 145.226 1104.65 144.788 1103.77 144.549C1102.89 144.23 1102.06 144.07 1101.26 144.07C1099.34 144.07 1097.75 144.788 1096.47 146.223C1095.2 147.659 1094.2 149.254 1093.48 151.009C1092.77 152.763 1092.25 154.358 1091.93 155.794C1091.69 157.149 1091.57 157.827 1091.57 157.827L1076.74 149.453C1076.74 144.828 1076.18 140.88 1075.06 137.61C1074.02 134.261 1071.67 131.669 1068 129.834C1066.09 128.957 1064.37 128.518 1062.86 128.518C1061.9 128.518 1060.86 128.718 1059.75 129.117C1058.63 129.515 1057.55 130.074 1056.52 130.791C1055.48 131.429 1054.6 132.227 1053.89 133.184C1053.25 134.141 1052.93 135.178 1052.93 136.294C1052.93 136.932 1052.97 137.451 1053.05 137.849C1053.21 138.168 1053.29 138.288 1053.29 138.208C1053.93 136.773 1054.96 135.537 1056.4 134.5C1057.83 133.383 1059.47 132.825 1061.3 132.825C1062.02 132.825 1062.94 133.064 1064.05 133.543C1065.17 133.942 1066.25 134.619 1067.28 135.577C1068.32 136.454 1069.2 137.65 1069.92 139.165C1070.71 140.601 1071.11 142.395 1071.11 144.549C1071.11 146.144 1070.79 147.699 1070.16 149.214C1069.52 150.65 1068.64 151.926 1067.52 153.042C1066.41 154.159 1065.05 155.116 1063.46 155.913C1061.86 156.631 1060.11 157.11 1058.19 157.349C1057.4 157.349 1056.64 156.99 1055.92 156.272C1055.2 155.475 1054.25 154.557 1053.05 153.521C1051.85 152.484 1050.34 151.487 1048.5 150.53C1046.67 149.573 1044.28 148.895 1041.33 148.496L1041.56 131.988C1041.64 131.19 1041.96 130.193 1042.52 128.997C1043.08 127.801 1043.8 126.565 1044.67 125.288C1045.63 123.933 1046.75 122.657 1048.02 121.46C1049.38 120.184 1050.9 119.068 1052.57 118.111C1057.59 115.718 1062.3 114.522 1066.69 114.522C1072.03 114.522 1076.74 116.037 1080.8 119.068C1084.87 122.019 1087.94 125.807 1090.01 130.432C1093.6 126.365 1097.59 124.331 1101.98 124.331C1105.17 124.331 1108.12 125.209 1110.83 126.963C1113.62 128.718 1116.17 131.23 1118.49 134.5C1118.72 134.739 1118.96 134.859 1119.2 134.859C1119.76 134.859 1120.04 134.58 1120.04 134.021C1120.04 133.782 1120 133.623 1119.92 133.543C1115.93 127.96 1111.51 124.531 1106.64 123.255V106.387H1034.51Z" fill="black"/>
<path d="M1132.87 100.286H1135.03C1137.26 100.286 1139.33 100.725 1141.25 101.602L1142.08 101.961C1146.95 104.194 1150.78 108.899 1153.57 116.077C1153.73 116.476 1154.01 116.675 1154.41 116.675C1154.96 116.675 1155.24 116.396 1155.24 115.838V115.479C1152.13 107.663 1147.75 102.559 1142.08 100.167V97.774L1161.7 94.1852V100.286H1170.91V106.387H1161.7V177.686L1142.08 165.005V115.599C1141.29 113.445 1140.45 111.771 1139.57 110.574C1138.69 109.378 1137.82 108.461 1136.94 107.823C1135.98 107.105 1135.03 106.627 1134.07 106.387H1132.87V100.286Z" fill="black"/>
<path d="M1175.32 135.218C1175.72 134.899 1176.2 134.5 1176.76 134.021C1177.24 133.623 1177.83 133.144 1178.55 132.586C1179.27 132.028 1180.11 131.31 1181.06 130.432L1195.06 118.948L1210.85 106.387H1168.5V100.286H1252.84V106.387H1243.63V177.805L1239.56 174.575C1231.67 168.355 1223.85 163.968 1216.12 161.416C1215.48 158.705 1214.32 156.671 1212.65 155.315C1210.97 153.959 1209.34 153.281 1207.74 153.281C1206.86 153.281 1205.99 153.401 1205.11 153.64C1204.23 153.8 1203.48 153.88 1202.84 153.88C1201.96 153.88 1201.24 153.84 1200.68 153.76C1200.13 153.6 1199.81 153.521 1199.73 153.521L1198.53 153.281L1197.69 154.119C1197.69 154.199 1197.53 154.438 1197.21 154.837C1196.9 155.235 1196.58 155.754 1196.26 156.392C1194.58 156.073 1192.83 155.754 1190.99 155.435C1189.24 155.116 1187.41 154.797 1185.49 154.478L1175.32 135.218ZM1237.41 163.091C1235.34 161.177 1233.22 159.422 1231.07 157.827C1229 156.232 1226.84 154.797 1224.61 153.521V121.221C1220.22 124.65 1215.72 128.279 1211.09 132.107C1206.55 135.856 1201.88 139.803 1197.09 143.95C1200.44 144.828 1203.95 145.984 1207.62 147.42C1211.29 148.775 1215.16 150.45 1219.23 152.444L1231.55 160.22C1231.87 160.459 1232.27 160.818 1232.74 161.297C1233.3 161.775 1233.82 162.254 1234.3 162.732C1234.86 163.211 1235.38 163.649 1235.85 164.048C1236.33 164.367 1236.69 164.526 1236.93 164.526C1237.49 164.526 1237.77 164.247 1237.77 163.689C1237.77 163.45 1237.65 163.25 1237.41 163.091ZM1206.78 155.315C1207.02 155.235 1207.34 155.196 1207.74 155.196C1208.62 155.196 1209.46 155.475 1210.25 156.033C1211.05 156.591 1211.77 157.309 1212.41 158.186C1213.05 158.984 1213.52 159.941 1213.84 161.057C1214.24 162.174 1214.44 163.25 1214.44 164.287C1214.44 166.361 1213.56 168.155 1211.81 169.67C1210.13 171.106 1207.9 171.824 1205.11 171.824C1203.67 171.824 1202.4 171.585 1201.28 171.106C1200.17 170.548 1199.21 169.87 1198.41 169.072C1197.69 168.275 1197.13 167.398 1196.74 166.441C1196.34 165.404 1196.14 164.447 1196.14 163.569C1196.14 162.453 1196.3 161.416 1196.62 160.459C1196.94 159.502 1197.29 158.665 1197.69 157.947C1198.09 157.07 1198.61 156.272 1199.25 155.554C1199.41 155.554 1199.81 155.634 1200.44 155.794C1201.08 155.873 1201.84 155.913 1202.72 155.913C1203.36 155.913 1203.99 155.873 1204.63 155.794C1205.35 155.714 1206.07 155.554 1206.78 155.315Z" fill="black"/>
<path d="M913.553 96.9965C918.578 96.9965 923.333 97.9834 927.819 99.9573L929.703 100.765C940.829 105.969 949.621 116.645 956.081 132.795C956.44 133.692 956.978 134.141 957.696 134.141C958.952 134.141 959.58 133.513 959.58 132.257V131.449C952.223 114.043 942.264 102.469 929.703 96.7273V91.0749L974.115 83V96.9965H994.841V110.724H974.115V272.76L929.703 243.96V131.719C928.088 127.232 926.294 123.644 924.32 120.952C922.526 118.26 920.731 116.197 918.937 114.761C917.142 113.326 915.617 112.339 914.361 111.8C913.105 111.262 912.208 110.903 911.669 110.724H893.635V266.838L862.682 241.537C857.119 227.541 851.556 217.492 845.993 211.391C840.61 205.29 835.227 201.163 829.844 199.009C827.87 202.778 825.896 205.918 823.922 208.43C821.948 210.942 820.602 212.557 819.885 213.275L819.346 213.813C813.066 220.632 804.901 226.105 794.852 230.232C784.804 234.18 773.499 236.154 760.938 236.154C751.248 236.154 742.276 234.987 734.022 232.655C725.947 230.322 718.59 227.451 711.95 224.041C705.49 220.453 699.838 216.684 694.993 212.737C690.327 208.789 686.559 205.2 683.688 201.97L676.959 194.434L676.69 194.164L704.683 126.066C707.016 139.524 710.335 150.829 714.642 159.981C719.128 169.132 724.063 176.489 729.446 182.052C734.829 187.615 740.482 191.562 746.403 193.895C752.504 196.228 758.426 197.394 764.168 197.394C770.269 197.394 775.742 196.497 780.587 194.703C785.611 192.729 789.828 190.306 793.238 187.435C796.826 184.385 799.518 181.065 801.312 177.476C803.107 173.708 804.004 169.94 804.004 166.171C804.004 161.147 803.017 156.93 801.043 153.521C799.069 150.111 796.737 147.509 794.045 145.715C791.353 143.741 788.662 142.395 785.97 141.678C783.458 140.78 781.574 140.332 780.318 140.332L779.241 140.063L781.394 142.216C783.009 144.19 784.804 146.881 786.778 150.291C788.751 153.7 789.738 157.468 789.738 161.596C789.738 163.749 789.11 166.261 787.854 169.132C786.778 172.003 785.163 174.785 783.009 177.476C780.856 179.988 778.164 182.142 774.934 183.936C771.704 185.731 767.936 186.628 763.63 186.628C759.861 186.628 756.093 186 752.325 184.744C748.736 183.308 745.506 181.424 742.635 179.091C739.764 176.758 737.431 174.067 735.637 171.016C733.842 167.966 732.945 164.826 732.945 161.596C732.945 158.904 733.573 156.302 734.829 153.79C738.956 145.356 741.558 138.717 742.635 133.872C743.891 128.847 744.519 125.079 744.519 122.567C744.519 120.055 744.34 118.44 743.981 117.722L797.275 117.453C810.195 124.272 819.795 132.616 826.075 142.485C832.535 152.175 835.855 162.403 836.034 173.17C837.829 173.887 839.534 174.515 841.149 175.054C842.943 175.592 844.827 176.4 846.801 177.476L850.569 179.63C855.773 182.68 860.797 186.269 865.642 190.396C870.487 194.523 874.973 199.548 879.101 205.469C879.639 206.008 880.177 206.277 880.716 206.277C881.972 206.277 882.6 205.649 882.6 204.393C882.6 203.854 882.51 203.495 882.331 203.316C873 190.217 862.412 180.886 850.569 175.323V110.724H667V96.9965H913.553Z" fill="black"/>
<path d="M1027.95 190.007H1059.89V196.108H1054.03C1053.79 196.666 1053.39 197.304 1052.83 198.022C1052.27 198.74 1051.67 199.458 1051.04 200.176C1050.4 200.814 1049.76 201.412 1049.12 201.97C1048.48 202.448 1047.97 202.807 1047.57 203.047C1045.81 204.402 1043.94 206.117 1041.94 208.191C1039.95 210.264 1038.08 212.816 1036.32 215.847C1034.65 218.798 1033.25 222.307 1032.14 226.374C1031.02 230.362 1030.46 234.947 1030.46 240.131C1030.46 244.358 1030.86 247.748 1031.66 250.3C1032.53 252.772 1033.49 254.686 1034.53 256.042C1035.64 257.318 1036.76 258.195 1037.88 258.674C1038.99 259.072 1039.79 259.272 1040.27 259.272H1040.63L1040.75 259.152C1039.71 257.637 1039.19 256.122 1039.19 254.606C1039.19 252.772 1039.99 251.097 1041.59 249.582C1043.26 247.987 1045.61 247.189 1048.64 247.189C1049.36 247.189 1050.24 247.389 1051.28 247.788C1052.39 248.107 1053.47 248.665 1054.51 249.462C1055.54 250.18 1056.42 251.177 1057.14 252.453C1057.86 253.729 1058.21 255.284 1058.21 257.118C1058.21 257.916 1058.01 258.993 1057.62 260.348C1057.22 261.704 1057.02 263.259 1057.02 265.014C1057.02 265.333 1057.02 265.652 1057.02 265.971C1057.02 266.37 1057.06 266.768 1057.14 267.167L1038.6 271.115C1034.45 269.839 1030.66 267.686 1027.23 264.655C1023.8 261.624 1021.01 258.434 1018.86 255.085C1018.22 254.128 1017.54 252.812 1016.82 251.137C1016.1 249.462 1015.43 247.548 1014.79 245.395C1014.23 243.242 1013.75 240.929 1013.35 238.457C1013.03 235.904 1012.88 233.313 1012.88 230.681C1012.88 225.178 1013.67 219.954 1015.27 215.009C1016.94 210.065 1019.93 205.16 1024.24 200.295C1026.47 197.663 1027.59 196.028 1027.59 195.39L1027.95 190.007Z" fill="black"/>
<path d="M1062.41 248.027V196.108H1053.2V190.007H1130.84V196.108H1081.79V231.159C1085.46 228.129 1088.57 224.978 1091.12 221.709C1093.75 218.439 1095.87 215.488 1097.46 212.856C1099.14 210.224 1100.33 208.071 1101.05 206.396C1101.85 204.642 1102.25 203.804 1102.25 203.884H1121.63V266.928L1102.25 254.606V232.834C1106.95 227.251 1110.78 221.589 1113.73 215.847C1113.81 215.767 1113.85 215.647 1113.85 215.488C1113.85 214.93 1113.57 214.651 1113.01 214.651C1112.77 214.651 1112.17 215.328 1111.22 216.684C1110.34 217.96 1109.34 219.515 1108.23 221.35C1107.11 223.104 1105.99 224.859 1104.88 226.613C1103.76 228.368 1102.88 229.644 1102.25 230.441V230.322C1101.61 231.119 1100.93 231.917 1100.21 232.714C1099.49 233.512 1098.74 234.309 1097.94 235.107L1095.79 237.26C1095.71 237.26 1095.67 237.3 1095.67 237.38C1091.04 241.766 1086.41 245.315 1081.79 248.027H1062.41Z" fill="black"/>
<path d="M1150.44 226.733C1152.52 226.494 1154.47 225.935 1156.31 225.058C1158.14 224.181 1159.78 223.104 1161.21 221.828C1162.65 220.472 1163.76 218.957 1164.56 217.282C1165.44 215.608 1165.96 213.813 1166.12 211.899C1164.76 213.654 1162.77 215.368 1160.13 217.043C1157.5 218.638 1154.39 219.436 1150.8 219.436C1149.37 219.436 1148.09 219.356 1146.98 219.196C1145.94 218.957 1145.1 218.718 1144.46 218.479L1133.22 209.626C1134.18 207.792 1134.81 206.117 1135.13 204.602C1135.53 203.086 1135.73 201.731 1135.73 200.534C1135.73 199.418 1135.65 198.461 1135.49 197.663C1135.33 196.866 1135.25 196.108 1135.25 195.39C1135.25 194.354 1135.57 193.476 1136.21 192.759C1136.85 191.961 1137.6 191.323 1138.48 190.845C1139.44 190.366 1140.36 190.007 1141.23 189.768C1142.19 189.529 1142.95 189.409 1143.51 189.409C1145.02 189.409 1146.5 189.728 1147.93 190.366C1149.37 190.924 1150.64 191.682 1151.76 192.639C1152.88 193.596 1153.75 194.752 1154.39 196.108C1155.11 197.384 1155.47 198.74 1155.47 200.176C1155.47 201.771 1155.11 203.206 1154.39 204.482C1153.67 205.678 1152.72 206.596 1151.52 207.234L1151.64 207.114C1155.55 206.237 1158.34 204.682 1160.01 202.448C1161.69 200.136 1162.53 197.265 1162.53 193.835C1162.53 193.277 1162.49 192.759 1162.41 192.28C1162.41 191.722 1162.37 191.124 1162.29 190.486H1162.89C1164.32 190.725 1166.04 191.483 1168.03 192.759C1170.1 193.955 1172.1 195.59 1174.01 197.663C1175.93 199.737 1177.52 202.249 1178.8 205.2C1180.15 208.071 1180.83 211.221 1180.83 214.651C1180.83 219.037 1179.79 223.144 1177.72 226.972C1175.73 230.8 1173.05 234.07 1169.7 236.782C1174.73 238.536 1179.71 240.769 1184.66 243.481C1189.6 246.192 1194.55 249.702 1199.49 254.008C1199.65 254.168 1199.85 254.247 1200.09 254.247C1200.57 254.247 1200.81 253.968 1200.81 253.41C1200.81 253.171 1200.73 252.971 1200.57 252.812C1196.34 248.904 1192.08 245.714 1187.77 243.242V187.495L1206.67 183.667V190.007H1215.88V196.108H1206.67V267.526L1202.84 264.535C1198.53 261.186 1194.19 258.315 1189.8 255.922C1185.5 253.53 1180.99 251.536 1176.28 249.941C1171.58 248.266 1166.59 246.95 1161.33 245.993C1156.15 245.036 1150.56 244.358 1144.58 243.959H1144.22L1135.13 226.613C1138.24 227.092 1140.83 227.331 1142.91 227.331C1144.18 227.331 1145.42 227.291 1146.62 227.211C1147.81 227.052 1149.09 226.892 1150.44 226.733Z" fill="black"/>
<path d="M1213.48 190.007H1215.63C1217.87 190.007 1219.94 190.446 1221.85 191.323L1222.69 191.682C1227.56 193.915 1231.39 198.62 1234.18 205.798C1234.34 206.197 1234.62 206.396 1235.01 206.396C1235.57 206.396 1235.85 206.117 1235.85 205.559V205.2C1232.74 197.384 1228.35 192.28 1222.69 189.888V187.495L1242.31 183.906V190.007H1251.52V196.108H1242.31V267.407L1222.69 254.726V205.32C1221.89 203.166 1221.06 201.491 1220.18 200.295C1219.3 199.099 1218.43 198.182 1217.55 197.544C1216.59 196.826 1215.63 196.347 1214.68 196.108H1213.48V190.007Z" fill="black"/>
</mask>
<g mask="url(#mask0)">
<rect x="397.837" y="-36.628" width="1013.1" height="239.256" fill="white"/>
<rect x="491.296" y="183.936" width="1013.1" height="239.256" fill="#92091A"/>
<rect x="924.948" y="-55.3199" width="1013.1" height="239.256" fill="#BC0A20"/>
</g>
</g>
</g>
<defs>
<clipPath id="clip0">
<rect width="1920" height="356" fill="white"/>
</clipPath>
</defs>
</svg>
