<svg width="2161" height="700" viewBox="0 0 2161 700" fill="none" xmlns="http://www.w3.org/2000/svg">
<mask id="mask0" mask-type="alpha" maskUnits="userSpaceOnUse" x="0" y="0" width="2161" height="700">
<path d="M1262.14 63.7452H1379.92V86.2433H1358.31C1357.42 88.302 1355.95 90.6548 1353.89 93.3016C1351.84 95.9485 1349.63 98.5953 1347.28 101.242C1344.93 103.595 1342.57 105.801 1340.22 107.859C1337.87 109.624 1335.96 110.947 1334.48 111.83C1328.01 116.829 1321.1 123.152 1313.75 130.799C1306.4 138.445 1299.49 147.856 1293.02 159.032C1286.84 169.913 1281.69 182.853 1277.58 197.852C1273.46 212.557 1271.4 229.467 1271.4 248.583C1271.4 264.17 1272.87 276.669 1275.81 286.08C1279.05 295.197 1282.58 302.255 1286.4 307.255C1290.52 311.961 1294.63 315.196 1298.75 316.96C1302.87 318.431 1305.81 319.166 1307.58 319.166H1308.9L1309.34 318.725C1305.52 313.137 1303.6 307.549 1303.6 301.961C1303.6 295.197 1306.55 289.021 1312.43 283.433C1318.6 277.552 1327.28 274.611 1338.45 274.611C1341.1 274.611 1344.34 275.346 1348.16 276.816C1352.28 277.993 1356.25 280.051 1360.07 282.992C1363.89 285.639 1367.13 289.315 1369.78 294.021C1372.42 298.726 1373.75 304.461 1373.75 311.225C1373.75 314.166 1373.01 318.137 1371.54 323.136C1370.07 328.136 1369.33 333.871 1369.33 340.341C1369.33 341.517 1369.33 342.693 1369.33 343.87C1369.33 345.34 1369.48 346.811 1369.78 348.281L1301.4 362.839C1286.11 358.133 1272.14 350.193 1259.49 339.017C1246.84 327.842 1236.55 316.078 1228.61 303.726C1226.26 300.197 1223.76 295.344 1221.11 289.168C1218.46 282.992 1215.96 275.934 1213.61 267.993C1211.55 260.053 1209.79 251.524 1208.32 242.407C1207.14 232.996 1206.55 223.438 1206.55 213.733C1206.55 193.441 1209.49 174.177 1215.38 155.944C1221.55 137.71 1232.58 119.623 1248.46 101.683C1256.7 91.9782 1260.81 85.9493 1260.81 83.5965L1262.14 63.7452Z" fill="black"/>
<path d="M1355.25 86.2433V63.7452H1726.69V86.2433H1692.72V347.399L1621.26 301.961V231.82C1617.43 229.467 1613.91 227.85 1610.67 226.967C1607.44 225.791 1604.35 225.203 1601.41 225.203C1594.35 225.203 1588.47 227.85 1583.76 233.143C1579.05 238.437 1575.38 244.319 1572.73 250.789C1570.09 257.259 1568.17 263.141 1567 268.435C1566.11 273.434 1565.67 275.934 1565.67 275.934L1510.97 245.054C1510.97 227.997 1508.91 213.439 1504.8 201.381C1500.97 189.029 1492.3 179.471 1478.77 172.707C1471.71 169.472 1465.39 167.854 1459.8 167.854C1456.27 167.854 1452.45 168.59 1448.33 170.06C1444.21 171.531 1440.24 173.589 1436.42 176.236C1432.6 178.589 1429.36 181.53 1426.71 185.059C1424.36 188.588 1423.19 192.411 1423.19 196.529C1423.19 198.881 1423.33 200.793 1423.63 202.263C1424.21 203.44 1424.51 203.881 1424.51 203.587C1426.86 198.293 1430.68 193.735 1435.98 189.911C1441.27 185.794 1447.3 183.736 1454.06 183.736C1456.71 183.736 1460.09 184.618 1464.21 186.382C1468.33 187.853 1472.3 190.353 1476.12 193.882C1479.95 197.117 1483.18 201.528 1485.83 207.116C1488.77 212.41 1490.24 219.027 1490.24 226.967C1490.24 232.849 1489.06 238.584 1486.71 244.172C1484.36 249.466 1481.12 254.171 1477 258.288C1472.89 262.406 1467.89 265.935 1462.01 268.876C1456.12 271.523 1449.65 273.287 1442.6 274.169C1439.65 274.169 1436.86 272.846 1434.21 270.199C1431.57 267.258 1428.04 263.876 1423.63 260.053C1419.21 256.23 1413.63 252.554 1406.86 249.024C1400.1 245.495 1391.28 242.995 1380.39 241.525L1381.28 180.648C1381.57 177.707 1382.75 174.03 1384.81 169.619C1386.86 165.208 1389.51 160.649 1392.75 155.944C1396.28 150.944 1400.39 146.239 1405.1 141.827C1410.1 137.122 1415.69 133.004 1421.86 129.475C1440.39 120.652 1457.74 116.241 1473.92 116.241C1493.62 116.241 1510.97 121.829 1525.97 133.004C1540.97 143.886 1552.29 157.855 1559.94 174.913C1573.17 159.914 1587.88 152.415 1604.05 152.415C1615.82 152.415 1626.7 155.65 1636.7 162.12C1646.99 168.59 1656.4 177.854 1664.93 189.911C1665.81 190.794 1666.69 191.235 1667.58 191.235C1669.64 191.235 1670.67 190.206 1670.67 188.147C1670.67 187.265 1670.52 186.676 1670.22 186.382C1655.52 165.796 1639.2 153.15 1621.26 148.444V86.2433H1355.25Z" fill="black"/>
<path d="M1717.98 63.7452H1725.93C1734.16 63.7452 1741.81 65.3627 1748.86 68.5977L1751.95 69.9211C1769.89 78.1558 1784.01 95.5073 1794.3 121.976C1794.89 123.446 1795.92 124.181 1797.39 124.181C1799.45 124.181 1800.48 123.152 1800.48 121.094V119.77C1789.01 90.9489 1772.83 72.1268 1751.95 63.304V54.4812L1824.3 41.247V63.7452H1858.27V86.2433H1824.3V349.163L1751.95 302.402V120.211C1749.01 112.271 1745.92 106.095 1742.69 101.683C1739.45 97.2719 1736.22 93.8898 1732.98 91.537C1729.45 88.8902 1725.93 87.1256 1722.4 86.2433H1717.98V63.7452Z" fill="black"/>
<path d="M1874.52 192.558C1875.99 191.382 1877.76 189.911 1879.82 188.147C1881.58 186.676 1883.79 184.912 1886.43 182.853C1889.08 180.795 1892.17 178.148 1895.7 174.913L1947.31 132.563L2005.54 86.2433H1849.38V63.7452H2160.38V86.2433H2126.42V349.605L2111.42 337.694C2082.3 314.754 2053.48 298.579 2024.95 289.168C2022.6 279.169 2018.34 271.67 2012.16 266.67C2005.98 261.67 1999.96 259.171 1994.07 259.171C1990.84 259.171 1987.6 259.612 1984.37 260.494C1981.13 261.082 1978.34 261.376 1975.99 261.376C1972.75 261.376 1970.1 261.229 1968.05 260.935C1965.99 260.347 1964.81 260.053 1964.52 260.053L1960.11 259.171L1957.02 262.259C1957.02 262.553 1956.43 263.435 1955.25 264.905C1954.08 266.376 1952.9 268.288 1951.72 270.64C1945.55 269.464 1939.08 268.288 1932.31 267.111C1925.84 265.935 1919.08 264.758 1912.02 263.582L1874.52 192.558ZM2103.48 295.344C2095.83 288.286 2088.04 281.816 2080.1 275.934C2072.45 270.052 2064.51 264.758 2056.27 260.053V140.945C2040.1 153.591 2023.48 166.972 2006.43 181.089C1989.66 194.911 1972.46 209.469 1954.81 224.762C1967.16 227.997 1980.1 232.261 1993.63 237.555C2007.16 242.554 2021.42 248.73 2036.42 256.083L2081.86 284.757C2083.04 285.639 2084.51 286.963 2086.27 288.727C2088.33 290.492 2090.24 292.256 2092.01 294.021C2094.07 295.785 2095.98 297.403 2097.74 298.873C2099.51 300.05 2100.83 300.638 2101.71 300.638C2103.77 300.638 2104.8 299.609 2104.8 297.55C2104.8 296.668 2104.36 295.932 2103.48 295.344ZM1990.54 266.67C1991.43 266.376 1992.6 266.229 1994.07 266.229C1997.31 266.229 2000.4 267.258 2003.34 269.317C2006.28 271.376 2008.93 274.022 2011.28 277.257C2013.63 280.198 2015.4 283.727 2016.57 287.845C2018.04 291.962 2018.78 295.932 2018.78 299.756C2018.78 307.402 2015.54 314.019 2009.07 319.607C2002.9 324.901 1994.66 327.547 1984.37 327.547C1979.07 327.547 1974.37 326.665 1970.25 324.901C1966.13 322.842 1962.61 320.342 1959.66 317.401C1957.02 314.46 1954.96 311.225 1953.49 307.696C1952.02 303.873 1951.28 300.344 1951.28 297.109C1951.28 292.991 1951.87 289.168 1953.05 285.639C1954.22 282.11 1955.55 279.022 1957.02 276.375C1958.49 273.14 1960.4 270.199 1962.75 267.552C1963.34 267.552 1964.81 267.846 1967.16 268.435C1969.52 268.729 1972.31 268.876 1975.55 268.876C1977.9 268.876 1980.25 268.729 1982.6 268.435C1985.25 268.141 1987.9 267.552 1990.54 266.67Z" fill="black"/>
<path d="M909.224 51.6135C927.752 51.6135 945.288 55.2529 961.831 62.5318L968.779 65.5094C1009.8 84.6991 1042.23 124.071 1066.05 183.625C1067.37 186.934 1069.36 188.588 1072.01 188.588C1076.64 188.588 1078.95 186.272 1078.95 181.64V178.662C1051.82 114.476 1015.1 71.7957 968.779 50.6209V29.777L1132.55 0V51.6135H1208.98V102.234H1132.55V699.76L968.779 593.555V179.655C962.823 163.112 956.206 149.878 948.927 139.952C942.31 130.026 935.693 122.417 929.076 117.123C922.459 111.829 916.834 108.19 912.202 106.205C907.57 104.22 904.262 102.896 902.277 102.234H835.774V677.924L721.629 584.622C701.116 533.009 680.603 495.953 660.09 473.455C640.239 450.956 620.387 435.737 600.536 427.797C593.257 441.692 585.978 453.272 578.7 462.536C571.421 471.8 566.458 477.756 563.811 480.403L561.826 482.388C538.666 507.533 508.558 527.715 471.502 542.934C434.446 557.492 392.759 564.771 346.439 564.771C310.706 564.771 277.621 560.47 247.182 551.867C217.405 543.265 190.275 532.678 165.791 520.105C141.97 506.871 121.126 492.975 103.26 478.418C86.0552 463.86 72.1593 450.626 61.5719 438.715L36.7577 410.923L35.7651 409.93L138.992 158.811C147.594 208.439 159.836 250.127 175.717 283.874C192.26 317.622 210.457 344.752 230.308 365.265C250.16 385.778 271.004 400.336 292.84 408.938C315.338 417.54 337.175 421.841 358.35 421.841C380.848 421.841 401.03 418.533 418.896 411.915C437.424 404.637 452.974 395.704 465.547 385.116C478.781 373.867 488.707 361.625 495.324 348.391C501.941 334.495 505.25 320.599 505.25 306.703C505.25 288.175 501.61 272.625 494.331 260.053C487.052 247.48 478.45 237.885 468.525 231.268C458.599 223.989 448.673 219.027 438.747 216.38C429.484 213.071 422.536 211.417 417.904 211.417L413.933 210.424L421.874 218.365C427.829 225.644 434.446 235.569 441.725 248.142C449.004 260.714 452.643 274.61 452.643 289.83C452.643 297.77 450.327 307.034 445.696 317.622C441.725 328.209 435.77 338.465 427.829 348.391C419.889 357.655 409.963 365.596 398.052 372.213C386.141 378.83 372.245 382.138 356.364 382.138C342.468 382.138 328.573 379.822 314.677 375.19C301.442 369.897 289.532 362.949 278.944 354.347C268.357 345.744 259.755 335.819 253.137 324.57C246.52 313.32 243.212 301.74 243.212 289.83C243.212 279.904 245.528 270.309 250.16 261.045C265.379 229.945 274.974 205.461 278.944 187.595C283.576 169.067 285.892 155.171 285.892 145.907C285.892 136.643 285.23 130.688 283.907 128.041L480.435 127.049C528.079 152.194 563.48 182.963 586.64 219.357C610.462 255.09 622.703 292.807 623.365 332.51C629.982 335.157 636.268 337.473 642.224 339.458C648.841 341.443 655.789 344.421 663.068 348.391L676.964 356.332C696.153 367.581 714.681 380.815 732.548 396.034C750.414 411.254 766.956 429.782 782.176 451.618C784.161 453.603 786.146 454.596 788.131 454.596C792.763 454.596 795.079 452.28 795.079 447.648C795.079 445.663 794.748 444.339 794.087 443.678C759.678 395.373 720.637 360.964 676.964 340.451V102.234H0.0327148V51.6135H909.224Z" fill="black"/>
<path d="M1331.07 394.6H1448.85V417.098H1427.24C1426.35 419.157 1424.88 421.51 1422.82 424.157C1420.77 426.803 1418.56 429.45 1416.21 432.097C1413.85 434.45 1411.5 436.656 1409.15 438.714C1406.8 440.479 1404.88 441.802 1403.41 442.685C1396.94 447.684 1390.03 454.007 1382.68 461.654C1375.33 469.3 1368.42 478.711 1361.95 489.887C1355.77 500.768 1350.62 513.708 1346.51 528.707C1342.39 543.412 1340.33 560.322 1340.33 579.438C1340.33 595.025 1341.8 607.524 1344.74 616.935C1347.98 626.052 1351.51 633.11 1355.33 638.11C1359.45 642.816 1363.56 646.051 1367.68 647.815C1371.8 649.286 1374.74 650.021 1376.5 650.021H1377.83L1378.27 649.58C1374.45 643.992 1372.53 638.404 1372.53 632.816C1372.53 626.052 1375.47 619.876 1381.36 614.288C1387.53 608.407 1396.21 605.466 1407.38 605.466C1410.03 605.466 1413.27 606.201 1417.09 607.671C1421.21 608.848 1425.18 610.906 1429 613.847C1432.82 616.494 1436.06 620.17 1438.7 624.876C1441.35 629.581 1442.68 635.316 1442.68 642.08C1442.68 645.021 1441.94 648.992 1440.47 653.991C1439 658.991 1438.26 664.726 1438.26 671.196C1438.26 672.372 1438.26 673.548 1438.26 674.725C1438.26 676.195 1438.41 677.666 1438.7 679.136L1370.33 693.694C1355.04 688.988 1341.07 681.048 1328.42 669.872C1315.77 658.697 1305.48 646.933 1297.54 634.581C1295.19 631.052 1292.69 626.199 1290.04 620.023C1287.39 613.847 1284.89 606.789 1282.54 598.848C1280.48 590.908 1278.72 582.379 1277.25 573.262C1276.07 563.851 1275.48 554.293 1275.48 544.588C1275.48 524.296 1278.42 505.033 1284.31 486.799C1290.48 468.565 1301.51 450.478 1317.39 432.538C1325.63 422.833 1329.74 416.804 1329.74 414.452L1331.07 394.6Z" fill="black"/>
<path d="M1458.15 608.554V417.098H1424.18V394.6H1710.48V417.098H1529.61V546.353C1543.14 535.177 1554.61 523.56 1564.02 511.503C1573.73 499.445 1581.52 488.563 1587.4 478.858C1593.58 469.153 1597.99 461.212 1600.63 455.037C1603.58 448.566 1605.05 445.478 1605.05 445.773H1676.51V678.254L1605.05 632.816V552.529C1622.4 531.942 1636.51 511.061 1647.4 489.887C1647.69 489.593 1647.84 489.151 1647.84 488.563C1647.84 486.505 1646.81 485.475 1644.75 485.475C1643.87 485.475 1641.66 487.975 1638.13 492.975C1634.9 497.68 1631.22 503.415 1627.1 510.179C1622.99 516.649 1618.87 523.119 1614.75 529.589C1610.63 536.059 1607.4 540.765 1605.05 543.706V543.265C1602.69 546.206 1600.19 549.147 1597.55 552.088C1594.9 555.028 1592.11 557.969 1589.16 560.91L1581.22 568.851C1580.93 568.851 1580.78 568.998 1580.78 569.292C1563.73 585.467 1546.67 598.554 1529.61 608.554H1458.15Z" fill="black"/>
<path d="M1782.78 530.03C1790.43 529.148 1797.64 527.09 1804.4 523.855C1811.16 520.619 1817.19 516.649 1822.49 511.944C1827.78 506.944 1831.9 501.356 1834.84 495.18C1838.07 489.004 1839.99 482.387 1840.57 475.329C1835.57 481.799 1828.22 488.122 1818.52 494.298C1808.81 500.18 1797.34 503.121 1784.11 503.121C1778.81 503.121 1774.11 502.827 1769.99 502.239C1766.17 501.356 1763.08 500.474 1760.73 499.592L1719.26 466.947C1722.79 460.183 1725.14 454.007 1726.32 448.419C1727.79 442.832 1728.52 437.832 1728.52 433.421C1728.52 429.303 1728.23 425.774 1727.64 422.833C1727.05 419.892 1726.76 417.098 1726.76 414.452C1726.76 410.628 1727.94 407.393 1730.29 404.746C1732.64 401.805 1735.44 399.453 1738.67 397.688C1742.2 395.924 1745.58 394.6 1748.82 393.718C1752.35 392.836 1755.14 392.394 1757.2 392.394C1762.79 392.394 1768.23 393.571 1773.52 395.924C1778.81 397.982 1783.52 400.776 1787.64 404.305C1791.75 407.834 1794.99 412.099 1797.34 417.098C1799.99 421.804 1801.31 426.803 1801.31 432.097C1801.31 437.979 1799.99 443.273 1797.34 447.978C1794.7 452.39 1791.17 455.772 1786.75 458.124L1787.2 457.683C1801.61 454.448 1811.9 448.714 1818.08 440.479C1824.25 431.95 1827.34 421.363 1827.34 408.717C1827.34 406.658 1827.19 404.746 1826.9 402.982C1826.9 400.923 1826.75 398.718 1826.46 396.365H1828.66C1833.96 397.247 1840.28 400.041 1847.63 404.746C1855.28 409.158 1862.63 415.187 1869.69 422.833C1876.75 430.48 1882.63 439.744 1887.33 450.625C1892.33 461.213 1894.83 472.829 1894.83 485.475C1894.83 501.65 1891.01 516.796 1883.36 530.913C1876.01 545.029 1866.16 557.087 1853.81 567.086C1872.34 573.556 1890.72 581.791 1908.95 591.79C1927.18 601.789 1945.42 614.73 1963.65 630.611C1964.24 631.199 1964.98 631.493 1965.86 631.493C1967.62 631.493 1968.5 630.464 1968.5 628.405C1968.5 627.523 1968.21 626.787 1967.62 626.199C1952.04 611.789 1936.3 600.025 1920.42 590.908V385.336L1990.12 371.22V394.6H2024.09V417.098H1990.12V680.46L1976 669.431C1960.12 657.079 1944.1 646.492 1927.92 637.669C1912.04 628.846 1895.42 621.494 1878.07 615.612C1860.72 609.436 1842.34 604.583 1822.93 601.054C1803.81 597.525 1783.23 595.025 1761.17 593.555H1759.85L1726.32 529.589C1737.79 531.354 1747.35 532.236 1754.99 532.236C1759.7 532.236 1764.26 532.089 1768.67 531.795C1773.08 531.207 1777.78 530.619 1782.78 530.03Z" fill="black"/>
<path d="M2015.24 394.6H2023.18C2031.41 394.6 2039.06 396.218 2046.12 399.453L2049.21 400.776C2067.15 409.011 2081.26 426.362 2091.56 452.831C2092.14 454.301 2093.17 455.037 2094.64 455.037C2096.7 455.037 2097.73 454.007 2097.73 451.949V450.625C2086.26 421.804 2070.09 402.982 2049.21 394.159V385.336L2121.55 372.102V394.6H2155.52V417.098H2121.55V680.018L2049.21 633.258V451.066C2046.27 443.126 2043.18 436.95 2039.94 432.538C2036.71 428.127 2033.47 424.745 2030.24 422.392C2026.71 419.745 2023.18 417.981 2019.65 417.098H2015.24V394.6Z" fill="black"/>
</mask>
<g mask="url(#mask0)">
<rect x="-992.534" y="-441.141" width="3735.91" height="882.282" fill="white"/>
<rect x="-647.893" y="372.213" width="3735.91" height="882.282" fill="#92091A"/>
<rect x="951.244" y="-510.069" width="3735.91" height="882.282" fill="#BC0A20"/>
</g>
</svg>
